<svg width="68" height="68" viewBox="0 0 68 68" fill="none" xmlns="http://www.w3.org/2000/svg">
<path d="M34.0612 0.254913C15.3207 0.254913 0.124146 15.7078 0.124146 34.7714C0.124146 50.0219 9.84814 62.9603 23.3324 67.5245C25.0284 67.844 25.6511 66.7757 25.6511 65.864C25.6511 65.0409 25.6196 62.3219 25.605 59.4376C16.1637 61.5256 14.1715 55.3651 14.1715 55.3651C12.6277 51.3754 10.4034 50.3145 10.4034 50.3145C7.32428 48.1722 10.6355 48.2162 10.6355 48.2162C14.0434 48.4592 15.8378 51.7732 15.8378 51.7732C18.8646 57.0501 23.7769 55.5246 25.7135 54.6426C26.0181 52.4123 26.8976 50.8884 27.8681 50.027C20.3303 49.1542 12.4063 46.1945 12.4063 32.9686C12.4063 29.2001 13.732 26.121 15.903 23.7037C15.5506 22.8338 14.389 19.3236 16.2317 14.5692C16.2317 14.5692 19.0815 13.6415 25.5668 18.1073C28.2739 17.3425 31.1771 16.959 34.0612 16.9458C36.9453 16.959 39.8508 17.3425 42.5629 18.1073C49.0403 13.6415 51.8862 14.5692 51.8862 14.5692C53.7334 19.3236 52.5712 22.8338 52.2189 23.7037C54.3949 26.121 55.7116 29.2001 55.7116 32.9686C55.7116 46.226 47.7725 49.1451 40.2155 49.9996C41.4327 51.0707 42.5174 53.1713 42.5174 56.3916C42.5174 61.0095 42.478 64.7265 42.478 65.864C42.478 66.7825 43.0889 67.8588 44.8091 67.5199C58.2861 62.9506 67.9977 50.0167 67.9977 34.7714C67.9977 15.7078 52.8034 0.254913 34.0612 0.254913" fill="#05152B"/>
<path d="M12.9778 49.8133C12.9031 49.9853 12.6378 50.0362 12.3962 49.9184C12.15 49.8058 12.0118 49.5721 12.0916 49.4C12.1647 49.2234 12.4305 49.1748 12.6761 49.292C12.9228 49.4052 13.0633 49.6412 12.9778 49.8133" fill="#05152B"/>
<path d="M14.3525 51.3726C14.1906 51.5252 13.8742 51.4543 13.6595 51.2131C13.4376 50.9724 13.396 50.6506 13.5601 50.4957C13.727 50.3431 14.0338 50.4146 14.2564 50.6552C14.4783 50.8987 14.5216 51.2182 14.3525 51.3726" fill="#05152B"/>
<path d="M15.6906 53.3605C15.4827 53.5074 15.1427 53.3696 14.9325 53.0627C14.7246 52.7558 14.7246 52.3877 14.937 52.2402C15.1477 52.0927 15.4827 52.2253 15.6957 52.53C15.903 52.8415 15.903 53.2102 15.6906 53.3605" fill="#05152B"/>
<path d="M17.5237 55.2811C17.3377 55.4897 16.9415 55.4337 16.6515 55.149C16.3548 54.8707 16.2722 54.4757 16.4588 54.2671C16.6471 54.0579 17.0455 54.1167 17.3377 54.3991C17.6322 54.6769 17.7221 55.0747 17.5237 55.2811" fill="#05152B"/>
<path d="M20.0526 56.3962C19.9706 56.6666 19.589 56.7895 19.2046 56.6746C18.8208 56.5563 18.5696 56.2396 18.6471 55.9664C18.7269 55.6943 19.1102 55.5663 19.4974 55.6892C19.8807 55.8069 20.1324 56.1213 20.0526 56.3962" fill="#05152B"/>
<path d="M22.8299 56.6031C22.8395 56.8878 22.5135 57.1238 22.11 57.1284C21.7043 57.1381 21.3761 56.9078 21.3716 56.6277C21.3716 56.3402 21.6902 56.1064 22.096 56.0995C22.4995 56.0915 22.8299 56.3202 22.8299 56.6031" fill="#05152B"/>
<path d="M25.4146 56.1556C25.4629 56.4334 25.1825 56.7186 24.7818 56.794C24.3878 56.8678 24.0231 56.6963 23.9731 56.4208C23.9242 56.1361 24.2097 55.8509 24.6031 55.7772C25.0043 55.7063 25.3635 55.8732 25.4146 56.1556" fill="#05152B"/>
</svg>
