<svg width="68" height="68" viewBox="0 0 68 68" fill="none" xmlns="http://www.w3.org/2000/svg">
<path fill-rule="evenodd" clip-rule="evenodd" d="M34 0C15.2223 0 0 15.2223 0 34C0 52.7777 15.2223 68 34 68C52.7777 68 68 52.7777 68 34C68 15.2223 52.7777 0 34 0ZM16.3223 28.1603H24.0274V51.311H16.3223V28.1603ZM24.5349 20.9988C24.4849 18.7289 22.8617 17 20.2258 17C17.5899 17 15.8667 18.7289 15.8667 20.9988C15.8667 23.2217 17.539 25.0004 20.1258 25.0004H20.175C22.8617 25.0004 24.5349 23.2217 24.5349 20.9988ZM42.9436 27.6167C48.0139 27.6167 51.8151 30.9262 51.8151 38.0371L51.8148 51.3111H44.11V38.9254C44.11 35.8144 42.995 33.6915 40.2057 33.6915C38.077 33.6915 36.8091 35.1226 36.2522 36.5049C36.0485 37.0003 35.9984 37.6905 35.9984 38.3824V51.3117H28.2924C28.2924 51.3117 28.3939 30.3333 28.2924 28.1609H35.9984V31.44C37.0211 29.8637 38.8527 27.6167 42.9436 27.6167Z" fill="#05152B"/>
</svg>
